<?xml version="1.0" encoding="UTF-8"?>
<svg id="Calque_2" data-name="Calque 2" xmlns="http://www.w3.org/2000/svg" viewBox="0 0 211.57 60.44">
  <defs>
    <style>
      .cls-1 {
        fill: #fce1be;
      }

      .cls-1, .cls-2, .cls-3, .cls-4 {
        stroke-width: 0px;
      }

      .cls-2 {
        fill: #f39206;
      }

      .cls-3 {
        fill: #043665;
      }

      .cls-4 {
        fill: #fff;
      }
    </style>
  </defs>
  <g id="Calque_1-2" data-name="Calque 1">
    <g>
      <g>
        <g>
          <polygon class="cls-4" points="78.7 14.74 78.7 41.87 71.8 45.28 71.8 41.87 64.47 28.06 64.47 49.2 58 42.73 58 14.26 64.9 8.22 64.9 15.12 72.2 28.06 72.2 14.74 78.7 14.74"/>
          <path class="cls-4" d="M98.55,34.1l6.04,1.73v3.45l-2.59,2.59h-18.54V14.07c.14.06.28.13.42.19h17.95l3.61,5.18-6.9,3.45-.86-1.73h-7.76v4.31h6.04v6.04h-6.04v4.31h7.73l.9-1.73Z"/>
          <polygon class="cls-4" points="114.08 35.83 121.76 35.83 121.84 32.38 116.42 25.48 115.8 24.61 127.88 24.61 127.88 38.42 125.87 41.87 109.94 41.87 107.18 39.28 107.18 17.71 109.76 15.12 125.82 15.12 127.88 16.85 127.88 19.62 121.84 22.89 120.98 21.16 114.08 21.16 114.08 35.83"/>
          <path class="cls-4" d="M150.31,15.12h-15.53l-2.59,3.45v20.71l2.59,2.59h15.53l2.59-2.59v-21.57l-2.59-2.59ZM146.86,35.83h-8.39v-14.67h8.39v14.67Z"/>
          <polygon class="cls-4" points="178.78 16.85 178.78 19.44 172.74 22.89 172.74 21.16 164.98 21.16 164.98 24.88 170.16 24.88 170.16 31.64 164.98 31.64 164.98 41.87 158.08 41.87 158.08 14.26 176.2 14.26 178.78 16.85"/>
          <polygon class="cls-4" points="188.36 16.51 188.36 42.22 181.37 42.22 181.37 14.26 188.36 16.51"/>
          <path class="cls-4" d="M211.57,14.26l-4.31,8.86h-2.59v29.1c-1.16-.66-2.75-1.75-4.31-3.45-1.55-1.69-2.49-3.37-3.05-4.57v-21.31h-2.99l-3.45-7.76-.47-.86h21.17Z"/>
        </g>
        <g>
          <g>
            <path class="cls-4" d="M43.22,17.46l-2.4-.98c-.04.12-.08.23-.13.35l-11.19,27.44c-.76,1.87-2.89,2.76-4.76,2L2.52,37.21l-1.01,2.47c-1.66,4.08.29,8.74,4.37,10.4l24.75,10.1c1.87.76,4-.13,4.76-2l12.28-30.1c1.7-4.16-.3-8.91-4.46-10.61Z"/>
            <path class="cls-3" d="M38.6,15.58l-19.07-7.78c-2.38-.97-5.09.17-6.06,2.55L3.45,34.93C.43,32.86-.85,28.89.59,25.35L9.75,2.89c.97-2.38,3.68-3.52,6.06-2.55l17.73,7.24c3.31,1.35,5.25,4.62,5.05,8Z"/>
          </g>
          <path class="cls-2" d="M38.6,15.58c-.05.87-.24,1.76-.59,2.61l-9.48,23.23c-.76,1.87-2.89,2.76-4.76,2l-18.8-7.67c-.54-.22-1.05-.5-1.52-.82C.43,32.86-.85,28.89.59,25.35L9.75,2.89c.97-2.38,3.68-3.52,6.06-2.55l17.73,7.24c3.31,1.35,5.25,4.62,5.05,8Z"/>
        </g>
      </g>
      <g>
        <path class="cls-1" d="M68.74,52.37v-4.39h.92l1.13,1.88c.29.49.55,1,.75,1.47h.01c-.06-.59-.07-1.15-.07-1.82v-1.53h.74v4.39h-.83l-1.15-1.94c-.28-.48-.57-1.02-.78-1.51h-.03c.03.57.05,1.15.05,1.88v1.57h-.74Z"/>
        <path class="cls-1" d="M73.64,51.01c.02.57.46.82.98.82.37,0,.63-.06.88-.14l.12.55c-.27.12-.65.2-1.11.2-1.03,0-1.64-.63-1.64-1.6,0-.88.53-1.71,1.55-1.71s1.37.85,1.37,1.54c0,.15-.01.27-.03.34h-2.12ZM75.04,50.45c0-.29-.12-.78-.66-.78-.5,0-.7.45-.74.78h1.39ZM75.39,47.83l-.79.96h-.55l.57-.96h.78Z"/>
        <path class="cls-1" d="M79.27,51.91c0,.67-.14,1.14-.47,1.44-.33.29-.79.38-1.23.38-.4,0-.83-.09-1.11-.25l.18-.61c.2.12.54.24.93.24.52,0,.91-.27.91-.96v-.27h-.01c-.18.28-.5.47-.93.47-.79,0-1.35-.65-1.35-1.55,0-1.04.68-1.67,1.44-1.67.49,0,.77.24.92.5h.01l.03-.42h.7c-.01.21-.03.48-.03.91v1.8ZM78.47,50.47c0-.08,0-.15-.03-.21-.08-.29-.31-.51-.65-.51-.45,0-.78.39-.78,1.04,0,.54.27.98.78.98.3,0,.56-.2.65-.49.03-.08.03-.19.03-.28v-.51Z"/>
        <path class="cls-1" d="M83.1,50.76c0,1.17-.82,1.69-1.63,1.69-.89,0-1.59-.61-1.59-1.63s.68-1.68,1.64-1.68,1.58.67,1.58,1.63ZM80.71,50.79c0,.61.31,1.08.79,1.08.46,0,.78-.44.78-1.09,0-.5-.22-1.07-.77-1.07s-.79.55-.79,1.08Z"/>
        <path class="cls-1" d="M86.05,52.28c-.17.08-.5.16-.9.16-.99,0-1.64-.64-1.64-1.62s.65-1.69,1.77-1.69c.29,0,.59.07.78.14l-.14.61c-.13-.07-.32-.12-.61-.12-.61,0-.98.45-.97,1.03,0,.65.42,1.02.97,1.02.27,0,.48-.06.63-.12l.11.59Z"/>
        <path class="cls-1" d="M87.11,51.01c.02.57.46.82.98.82.37,0,.63-.06.88-.14l.12.55c-.27.12-.65.2-1.11.2-1.03,0-1.64-.63-1.64-1.6,0-.88.53-1.71,1.55-1.71s1.37.85,1.37,1.54c0,.15-.01.27-.03.34h-2.12ZM88.5,50.45c0-.29-.12-.78-.66-.78-.5,0-.7.45-.74.78h1.39Z"/>
        <path class="cls-1" d="M91.78,48.65h-1.25v-.67h3.32v.67h-1.26v3.72h-.8v-3.72Z"/>
        <path class="cls-1" d="M94.35,51.01c.02.57.46.82.98.82.37,0,.63-.06.88-.14l.12.55c-.27.12-.65.2-1.11.2-1.03,0-1.64-.63-1.64-1.6,0-.88.53-1.71,1.55-1.71s1.37.85,1.37,1.54c0,.15-.01.27-.03.34h-2.12ZM95.75,50.45c0-.29-.12-.78-.66-.78-.5,0-.7.45-.74.78h1.39Z"/>
        <path class="cls-1" d="M99.44,52.28c-.17.08-.5.16-.9.16-.99,0-1.64-.64-1.64-1.62s.65-1.69,1.77-1.69c.29,0,.59.07.78.14l-.14.61c-.13-.07-.32-.12-.61-.12-.61,0-.98.45-.97,1.03,0,.65.42,1.02.97,1.02.27,0,.48-.06.63-.12l.11.59Z"/>
        <path class="cls-1" d="M99.99,47.75h.8v1.88h.01c.1-.15.23-.27.4-.36.16-.09.35-.14.55-.14.54,0,1.11.36,1.11,1.38v1.87h-.8v-1.79c0-.46-.17-.81-.61-.81-.31,0-.53.21-.63.45-.03.07-.03.16-.03.24v1.9h-.8v-4.63Z"/>
        <path class="cls-1" d="M103.67,50.15c0-.36-.01-.67-.03-.94h.7l.04.48h.02c.14-.25.49-.55,1.02-.55.55,0,1.13.36,1.13,1.36v1.88h-.8v-1.79c0-.46-.17-.8-.61-.8-.32,0-.54.23-.63.47-.03.07-.04.16-.04.25v1.87h-.8v-2.23Z"/>
        <path class="cls-1" d="M108.21,48.31c0,.24-.18.43-.46.43s-.44-.2-.44-.43c0-.25.18-.44.45-.44s.44.19.45.44ZM107.36,52.37v-3.17h.8v3.17h-.8Z"/>
        <path class="cls-1" d="M111.11,51.94h-.01c-.19.31-.52.51-.98.51-.72,0-1.33-.62-1.33-1.61,0-1.16.74-1.71,1.42-1.71.44,0,.76.2.93.49h.01s.02-.42.02-.42h.78c-.01.29-.03.59-.03.92v3.54h-.8v-1.73ZM111.11,50.51c0-.07,0-.14-.02-.2-.07-.3-.33-.55-.68-.55-.52,0-.81.44-.81,1.04s.28,1.02.79,1.02c.33,0,.59-.21.68-.53.03-.07.04-.17.04-.25v-.53Z"/>
        <path class="cls-1" d="M115.57,51.42c0,.38.01.69.03.95h-.7l-.04-.48h-.02c-.14.22-.45.55-1.02.55s-1.1-.34-1.1-1.38v-1.86h.8v1.73c0,.53.17.87.59.87.33,0,.53-.22.61-.43.03-.07.05-.16.05-.25v-1.92h.8v2.22Z"/>
        <path class="cls-1" d="M116.96,51.01c.02.57.46.82.98.82.37,0,.63-.06.88-.14l.12.55c-.27.12-.65.2-1.11.2-1.03,0-1.63-.63-1.63-1.6,0-.88.53-1.71,1.55-1.71s1.37.85,1.37,1.54c0,.15-.01.27-.03.34h-2.12ZM118.35,50.45c0-.29-.12-.78-.66-.78-.5,0-.7.45-.74.78h1.39Z"/>
        <path class="cls-1" d="M121.59,51.01c.02.57.46.82.98.82.37,0,.63-.06.88-.14l.12.55c-.27.12-.65.2-1.11.2-1.03,0-1.63-.63-1.63-1.6,0-.88.53-1.71,1.55-1.71s1.37.85,1.37,1.54c0,.15-.01.27-.03.34h-2.12ZM122.98,50.45c0-.29-.12-.78-.66-.78-.5,0-.7.45-.74.78h1.39Z"/>
        <path class="cls-1" d="M124.34,50.15c0-.36-.01-.67-.03-.94h.7l.04.48h.02c.14-.25.49-.55,1.02-.55.55,0,1.13.36,1.13,1.36v1.88h-.8v-1.79c0-.46-.17-.8-.61-.8-.32,0-.54.23-.63.47-.03.07-.04.16-.04.25v1.87h-.8v-2.23Z"/>
        <path class="cls-1" d="M129.36,47.98h2.54v.66h-1.74v1.21h1.62v.65h-1.62v1.87h-.8v-4.39Z"/>
        <path class="cls-1" d="M135.44,50.76c0,1.17-.82,1.69-1.63,1.69-.89,0-1.59-.61-1.59-1.63s.68-1.68,1.64-1.68,1.58.67,1.58,1.63ZM133.05,50.79c0,.61.31,1.08.79,1.08.46,0,.78-.44.78-1.09,0-.5-.22-1.07-.77-1.07s-.79.55-.79,1.08Z"/>
        <path class="cls-1" d="M138.89,51.42c0,.38.01.69.03.95h-.7l-.04-.48h-.02c-.14.22-.45.55-1.02.55s-1.1-.34-1.1-1.38v-1.86h.8v1.73c0,.53.17.87.59.87.33,0,.53-.22.61-.43.03-.07.05-.16.05-.25v-1.92h.8v2.22Z"/>
        <path class="cls-1" d="M139.72,50.22c0-.43,0-.74-.03-1.02h.69l.03.6h.02c.16-.44.53-.67.87-.67.08,0,.12,0,.19.02v.75c-.07-.01-.14-.02-.24-.02-.38,0-.65.24-.72.61-.01.07-.02.16-.02.24v1.65h-.8v-2.15Z"/>
        <path class="cls-1" d="M142,50.15c0-.36-.01-.67-.03-.94h.7l.04.48h.02c.14-.25.49-.55,1.02-.55.55,0,1.13.36,1.13,1.36v1.88h-.8v-1.79c0-.46-.17-.8-.61-.8-.32,0-.54.23-.63.47-.03.07-.04.16-.04.25v1.87h-.8v-2.23Z"/>
        <path class="cls-1" d="M146.53,48.31c0,.24-.18.43-.46.43s-.44-.2-.44-.43c0-.25.18-.44.45-.44s.44.19.45.44ZM145.68,52.37v-3.17h.8v3.17h-.8Z"/>
        <path class="cls-1" d="M148.23,48.39v.81h.76v.6h-.76v1.4c0,.39.1.59.41.59.14,0,.22,0,.31-.03v.61c-.1.04-.32.08-.57.08-.3,0-.54-.1-.69-.26-.18-.18-.25-.48-.25-.89v-1.49h-.45v-.6h.45v-.59l.79-.22Z"/>
        <path class="cls-1" d="M152.39,51.42c0,.38.01.69.03.95h-.7l-.04-.48h-.02c-.14.22-.45.55-1.02.55s-1.1-.34-1.1-1.38v-1.86h.8v1.73c0,.53.17.87.59.87.33,0,.53-.22.61-.43.03-.07.05-.16.05-.25v-1.92h.8v2.22Z"/>
        <path class="cls-1" d="M153.22,50.22c0-.43,0-.74-.03-1.02h.69l.03.6h.02c.16-.44.53-.67.87-.67.08,0,.12,0,.19.02v.75c-.07-.01-.14-.02-.24-.02-.38,0-.65.24-.72.61-.01.07-.02.16-.02.24v1.65h-.8v-2.15Z"/>
        <path class="cls-1" d="M156,51.01c.02.57.46.82.98.82.37,0,.63-.06.88-.14l.12.55c-.27.12-.65.2-1.11.2-1.03,0-1.63-.63-1.63-1.6,0-.88.53-1.71,1.55-1.71s1.37.85,1.37,1.54c0,.15-.01.27-.03.34h-2.12ZM157.4,50.45c0-.29-.12-.78-.66-.78-.5,0-.7.45-.74.78h1.39Z"/>
        <path class="cls-1" d="M158.72,51.63c.18.11.52.24.81.24.35,0,.51-.15.51-.36s-.13-.32-.52-.46c-.62-.21-.87-.55-.87-.92,0-.56.46-.99,1.2-.99.35,0,.66.08.85.19l-.16.56c-.13-.08-.39-.18-.67-.18s-.44.14-.44.34.15.29.55.44c.58.2.84.5.85.96,0,.58-.45,1-1.29,1-.38,0-.73-.09-.96-.22l.16-.59Z"/>
        <path class="cls-1" d="M163.57,47.98v4.39h-.8v-4.39h.8Z"/>
        <path class="cls-1" d="M164.46,50.15c0-.36-.01-.67-.03-.94h.7l.04.48h.02c.14-.25.49-.55,1.02-.55.55,0,1.13.36,1.13,1.36v1.88h-.8v-1.79c0-.46-.17-.8-.61-.8-.32,0-.54.23-.63.47-.03.07-.04.16-.04.25v1.87h-.8v-2.23Z"/>
        <path class="cls-1" d="M171.07,47.75v3.73c0,.33.01.68.03.89h-.71l-.04-.5h-.01c-.19.35-.57.57-1.03.57-.76,0-1.36-.64-1.36-1.62,0-1.06.66-1.69,1.42-1.69.44,0,.75.18.89.41h.01v-1.79h.8ZM170.26,50.52c0-.07,0-.15-.02-.21-.07-.31-.33-.56-.69-.56-.51,0-.8.46-.8,1.04s.29,1.01.79,1.01c.33,0,.61-.22.69-.57.02-.07.03-.15.03-.23v-.48Z"/>
        <path class="cls-1" d="M174.72,51.42c0,.38.01.69.03.95h-.7l-.04-.48h-.02c-.14.22-.45.55-1.02.55s-1.1-.34-1.1-1.38v-1.86h.8v1.73c0,.53.17.87.59.87.33,0,.53-.22.61-.43.03-.07.05-.16.05-.25v-1.92h.8v2.22Z"/>
        <path class="cls-1" d="M175.52,51.63c.18.11.52.24.81.24.35,0,.51-.15.51-.36s-.13-.32-.52-.46c-.62-.21-.87-.55-.87-.92,0-.56.46-.99,1.2-.99.35,0,.66.08.85.19l-.16.56c-.13-.08-.39-.18-.67-.18s-.44.14-.44.34.15.29.55.44c.58.2.84.5.85.96,0,.58-.45,1-1.29,1-.38,0-.73-.09-.96-.22l.16-.59Z"/>
        <path class="cls-1" d="M179.14,48.39v.81h.76v.6h-.76v1.4c0,.39.1.59.41.59.14,0,.22,0,.31-.03v.61c-.1.04-.32.08-.57.08-.3,0-.54-.1-.69-.26-.18-.18-.25-.48-.25-.89v-1.49h-.45v-.6h.45v-.59l.79-.22Z"/>
        <path class="cls-1" d="M180.47,50.22c0-.43,0-.74-.03-1.02h.69l.03.6h.02c.16-.44.53-.67.87-.67.08,0,.12,0,.19.02v.75c-.07-.01-.14-.02-.24-.02-.38,0-.65.24-.72.61-.01.07-.02.16-.02.24v1.65h-.8v-2.15Z"/>
        <path class="cls-1" d="M183.6,48.31c0,.24-.18.43-.46.43s-.44-.2-.44-.43c0-.25.18-.44.45-.44s.44.19.45.44ZM182.75,52.37v-3.17h.8v3.17h-.8Z"/>
        <path class="cls-1" d="M184.94,51.01c.02.57.46.82.98.82.37,0,.63-.06.88-.14l.12.55c-.27.12-.65.2-1.11.2-1.03,0-1.63-.63-1.63-1.6,0-.88.53-1.71,1.55-1.71s1.37.85,1.37,1.54c0,.15-.01.27-.03.34h-2.12ZM186.34,50.45c0-.29-.12-.78-.66-.78-.5,0-.7.45-.74.78h1.39Z"/>
        <path class="cls-1" d="M187.69,47.75h.8v4.63h-.8v-4.63Z"/>
        <path class="cls-1" d="M189.33,47.75h.8v4.63h-.8v-4.63Z"/>
        <path class="cls-1" d="M191.53,51.01c.02.57.46.82.98.82.37,0,.63-.06.88-.14l.12.55c-.27.12-.65.2-1.11.2-1.03,0-1.63-.63-1.63-1.6,0-.88.53-1.71,1.55-1.71s1.37.85,1.37,1.54c0,.15-.01.27-.03.34h-2.12ZM192.92,50.45c0-.29-.12-.78-.66-.78-.5,0-.7.45-.74.78h1.39Z"/>
        <path class="cls-1" d="M194.25,51.63c.18.11.52.24.81.24.35,0,.51-.15.51-.36s-.13-.32-.52-.46c-.62-.21-.87-.55-.87-.92,0-.56.46-.99,1.2-.99.35,0,.66.08.85.19l-.16.56c-.13-.08-.39-.18-.67-.18s-.44.14-.44.34.15.29.55.44c.58.2.84.5.85.96,0,.58-.45,1-1.29,1-.38,0-.73-.09-.96-.22l.16-.59Z"/>
      </g>
    </g>
  </g>
</svg>